# xmcd
#
# Track frame offsets: 
#        150
#        15551
#        40888
#        61952
#        78188
#        99782
#        117898
#        138021
#        151825
#        169326
#
# Disc length: 2482 seconds
#
# Revision: 0
# Processed by: cddbd v1.5.2PL0 Copyright (c) Steve Scherf et al.
# Submitted via: ExactAudioCopy v1.0b4
#
DISCID=6a09b00a
DTITLE=Blue Gators - Amazing Blue
DYEAR=2015
DGENRE=Blues
TTITLE0=Amazing Blue
TTITLE1=Wrong
TTITLE2=Green Tea
TTITLE3=Picture This
TTITLE4=In Front of Me
TTITLE5=No Sense Trying
TTITLE6=Going With the Tide
TTITLE7=Day Away
TTITLE8=Lovely Lady
TTITLE9=Miss That Plane
EXTD=
EXTT0=
EXTT1=
EXTT2=
EXTT3=
EXTT4=
EXTT5=
EXTT6=
EXTT7=
EXTT8=
EXTT9=
PLAYORDER=
